<svg xmlns="http://www.w3.org/2000/svg" viewBox="0 0 1024 1024" width="1024" height="1024" role="img" aria-label="Cute lobster avatar">
  <defs>
    <radialGradient id="bg" cx="35%" cy="30%" r="80%">
      <stop offset="0%" stop-color="#334155"/>
      <stop offset="100%" stop-color="#0f172a"/>
    </radialGradient>
    <linearGradient id="lobster" x1="0" y1="0" x2="0" y2="1">
      <stop offset="0%" stop-color="#fb7185"/>
      <stop offset="55%" stop-color="#ef4444"/>
      <stop offset="100%" stop-color="#be123c"/>
    </linearGradient>
    <linearGradient id="belly" x1="0" y1="0" x2="0" y2="1">
      <stop offset="0%" stop-color="#fecdd3"/>
      <stop offset="100%" stop-color="#fda4af"/>
    </linearGradient>
  </defs>
  <rect width="1024" height="1024" rx="240" fill="url(#bg)"/>
  <g stroke="#7f1d1d" stroke-width="18" stroke-linecap="round" stroke-linejoin="round">
    <path d="M312 300c-70-30-124-90-146-162 80 12 145 54 182 118" fill="none"/>
    <path d="M712 300c70-30 124-90 146-162-80 12-145 54-182 118" fill="none"/>
    <path d="M328 356c-90 20-164 88-196 180" fill="none"/>
    <path d="M696 356c90 20 164 88 196 180" fill="none"/>

    <path d="M250 510c-64 8-114 50-132 110 54 12 112-2 154-38" fill="url(#lobster)"/>
    <path d="M774 510c64 8 114 50 132 110-54 12-112-2-154-38" fill="url(#lobster)"/>

    <ellipse cx="512" cy="410" rx="128" ry="144" fill="url(#lobster)"/>
    <ellipse cx="512" cy="624" rx="188" ry="222" fill="url(#lobster)"/>
    <ellipse cx="512" cy="666" rx="92" ry="138" fill="url(#belly)" stroke="none"/>

    <circle cx="454" cy="382" r="18" fill="#111827" stroke="none"/>
    <circle cx="570" cy="382" r="18" fill="#111827" stroke="none"/>
    <path d="M468 438c26 26 62 38 88 0" fill="none"/>

    <path d="M418 820l-84 126" fill="none"/>
    <path d="M470 844l-44 138" fill="none"/>
    <path d="M606 820l84 126" fill="none"/>
    <path d="M554 844l44 138" fill="none"/>
  </g>
</svg>
